<?xml version="1.0" encoding="utf-8"?>
<!-- Generator: Adobe Illustrator 16.0.0, SVG Export Plug-In . SVG Version: 6.00 Build 0)  -->
<!DOCTYPE svg PUBLIC "-//W3C//DTD SVG 1.1//EN" "http://www.w3.org/Graphics/SVG/1.1/DTD/svg11.dtd">
<svg version="1.1" id="Layer_1" xmlns="http://www.w3.org/2000/svg" xmlns:xlink="http://www.w3.org/1999/xlink" x="0px" y="0px"
	 width="577.15px" height="66.98px" viewBox="0 0 577.15 66.98" enable-background="new 0 0 577.15 66.98" xml:space="preserve">
<g>
	<path fill="#777777" d="M1.98,20.75H4.3v15.82h7.59v1.95H1.98V20.75z"/>
	<path fill="#777777" d="M17.32,32.94l-1.82,5.59h-2.4l6.06-17.77h2.74l6.06,17.77h-2.45l-1.9-5.59H17.32z M23.15,31.14l-1.74-5.12
		c-0.4-1.16-0.66-2.21-0.92-3.24h-0.08c-0.24,1.05-0.53,2.14-0.87,3.22l-1.74,5.14H23.15z"/>
	<path fill="#777777" d="M30.56,20.99c1.03-0.21,2.64-0.37,4.22-0.37c2.29,0,3.77,0.4,4.85,1.29c0.95,0.69,1.5,1.74,1.5,3.14
		c0,1.71-1.16,3.24-3.01,3.9v0.05c1.69,0.42,3.67,1.79,3.67,4.48c0,1.5-0.58,2.66-1.53,3.53c-1.21,1.13-3.22,1.66-6.12,1.66
		c-1.61,0-2.79-0.11-3.59-0.21V20.99z M32.88,28.3h2.08c2.4,0,3.85-1.29,3.85-3.01c0-2.08-1.58-2.9-3.9-2.9
		c-1.05,0-1.66,0.08-2.03,0.16V28.3z M32.88,36.79c0.47,0.08,1.08,0.11,1.92,0.11c2.37,0,4.59-0.87,4.59-3.43
		c0-2.45-2.11-3.45-4.61-3.45h-1.9V36.79z"/>
	<path fill="#777777" d="M60.06,29.61c0,5.91-3.77,9.2-8.25,9.2c-4.8,0-7.99-3.77-7.99-9.07c0-5.46,3.4-9.28,8.31-9.28
		C57.19,20.46,60.06,24.47,60.06,29.61z M46.27,29.67c0,4.03,2.06,7.28,5.67,7.28c3.74,0,5.7-3.4,5.7-7.28
		c0-3.64-1.77-7.33-5.67-7.33C48.28,22.34,46.27,25.66,46.27,29.67z"/>
	<path fill="#777777" d="M63.02,20.99c1.19-0.24,2.85-0.37,4.43-0.37c2.45,0,4.03,0.45,5.14,1.45c0.87,0.79,1.4,2,1.4,3.38
		c0,2.35-1.48,3.9-3.35,4.54v0.05c1.37,0.5,2.19,1.79,2.61,3.61c0.58,2.5,1,4.19,1.37,4.88h-2.37c-0.29-0.5-0.69-2.03-1.19-4.25
		c-0.53-2.43-1.48-3.38-3.56-3.45h-2.16v7.7h-2.32V20.99z M65.34,29.09h2.35c2.45,0,4.01-1.34,4.01-3.38c0-2.32-1.66-3.3-4.09-3.32
		c-1.13,0-1.9,0.11-2.27,0.21V29.09z"/>
	<path fill="#777777" d="M80.23,32.94l-1.82,5.59h-2.4l6.06-17.77h2.74l6.06,17.77h-2.45l-1.9-5.59H80.23z M86.06,31.14l-1.74-5.12
		c-0.4-1.16-0.66-2.21-0.92-3.24h-0.08c-0.24,1.05-0.53,2.14-0.87,3.22l-1.74,5.14H86.06z"/>
	<path fill="#777777" d="M94.84,22.71h-5.41v-1.95h13.16v1.95h-5.43v15.82h-2.32V22.71z"/>
	<path fill="#777777" d="M119.04,29.61c0,5.91-3.77,9.2-8.25,9.2c-4.8,0-7.99-3.77-7.99-9.07c0-5.46,3.4-9.28,8.31-9.28
		C116.17,20.46,119.04,24.47,119.04,29.61z M105.25,29.67c0,4.03,2.06,7.28,5.67,7.28c3.74,0,5.7-3.4,5.7-7.28
		c0-3.64-1.77-7.33-5.67-7.33C107.26,22.34,105.25,25.66,105.25,29.67z"/>
	<path fill="#777777" d="M122,20.99c1.19-0.24,2.85-0.37,4.43-0.37c2.45,0,4.03,0.45,5.14,1.45c0.87,0.79,1.4,2,1.4,3.38
		c0,2.35-1.48,3.9-3.35,4.54v0.05c1.37,0.5,2.19,1.79,2.61,3.61c0.58,2.5,1,4.19,1.37,4.88h-2.37c-0.29-0.5-0.69-2.03-1.19-4.25
		c-0.53-2.43-1.48-3.38-3.56-3.45h-2.16v7.7H122V20.99z M124.32,29.09h2.35c2.45,0,4.01-1.34,4.01-3.38c0-2.32-1.66-3.3-4.09-3.32
		c-1.13,0-1.9,0.11-2.27,0.21V29.09z"/>
	<path fill="#777777" d="M138.5,20.75v17.77h-2.32V20.75H138.5z"/>
	<path fill="#777777" d="M157.7,29.61c0,5.91-3.77,9.2-8.25,9.2c-4.8,0-7.99-3.77-7.99-9.07c0-5.46,3.4-9.28,8.31-9.28
		C154.82,20.46,157.7,24.47,157.7,29.61z M143.91,29.67c0,4.03,2.06,7.28,5.67,7.28c3.74,0,5.7-3.4,5.7-7.28
		c0-3.64-1.77-7.33-5.67-7.33C145.91,22.34,143.91,25.66,143.91,29.67z"/>
</g>
<g>
	<path fill="#777777" d="M197.64,37.78l-4.23,12.82h-5.44l13.84-40.75h6.35l13.9,40.75h-5.62l-4.35-12.82H197.64z M211,33.67
		l-3.99-11.73c-0.91-2.66-1.51-5.08-2.12-7.44h-0.12c-0.6,2.42-1.27,4.9-2.06,7.38l-3.99,11.79H211z"/>
	<path fill="#777777" d="M228.05,10.4c2.66-0.54,6.47-0.85,10.1-0.85c5.62,0,9.25,1.03,11.79,3.33c2.06,1.81,3.2,4.59,3.2,7.74
		c0,5.38-3.39,8.95-7.68,10.4v0.18c3.14,1.09,5.02,3.99,5.98,8.22c1.33,5.68,2.3,9.61,3.14,11.18h-5.44
		c-0.67-1.15-1.57-4.66-2.72-9.73c-1.21-5.62-3.39-7.74-8.16-7.92h-4.96V50.6h-5.26V10.4z M233.31,28.96h5.38
		c5.62,0,9.19-3.08,9.19-7.74c0-5.26-3.81-7.56-9.37-7.62c-2.54,0-4.35,0.24-5.2,0.48V28.96z"/>
	<path fill="#777777" d="M268.85,14.32h-12.39V9.85h30.17v4.47h-12.45V50.6h-5.32V14.32z"/>
	<path fill="#777777" d="M312.26,31.49h-15.84v14.69h17.65v4.41h-22.91V9.85h22.01v4.41h-16.75v12.88h15.84V31.49z"/>
	<path fill="#777777" d="M329.79,40.14l-2.9,10.46h-9.55l12.45-40.75h12.09l12.64,40.75h-9.92l-3.14-10.46H329.79z M340.12,33.25
		l-2.54-8.65c-0.73-2.42-1.45-5.44-2.06-7.86h-0.12c-0.6,2.42-1.21,5.5-1.87,7.86l-2.42,8.65H340.12z"/>
	<path fill="#777777" d="M356.32,9.85h9.25v33.01h16.2v7.74h-25.45V9.85z"/>
	<path fill="#777777" d="M394.29,40.14l-2.9,10.46h-9.55l12.45-40.75h12.09l12.64,40.75h-9.92l-3.14-10.46H394.29z M404.62,33.25
		l-2.54-8.65c-0.73-2.42-1.45-5.44-2.06-7.86h-0.12c-0.6,2.42-1.21,5.5-1.87,7.86l-2.42,8.65H404.62z"/>
	<path fill="#777777" d="M457.7,35c-0.18-4.9-0.36-10.82-0.36-16.75h-0.18c-1.27,5.2-2.96,11-4.53,15.78l-4.96,15.9h-7.19
		l-4.35-15.78c-1.33-4.78-2.72-10.58-3.69-15.9h-0.12c-0.24,5.5-0.42,11.79-0.73,16.87l-0.73,15.48h-8.52l2.6-40.75h12.27l3.99,13.6
		c1.27,4.72,2.54,9.79,3.45,14.57h0.18c1.15-4.72,2.54-10.1,3.87-14.63l4.35-13.54h12.03l2.24,40.75h-9.01L457.7,35z"/>
	<path fill="#777777" d="M498.62,33.37h-14.99v9.67h16.75v7.56h-26V9.85h25.15v7.56h-15.9v8.46h14.99V33.37z"/>
	<path fill="#777777" d="M504.25,10.4c3.39-0.54,7.8-0.85,12.45-0.85c7.74,0,12.76,1.39,16.69,4.35c4.23,3.14,6.89,8.16,6.89,15.36
		c0,7.8-2.84,13.18-6.77,16.5c-4.29,3.57-10.82,5.26-18.8,5.26c-4.78,0-8.16-0.3-10.46-0.61V10.4z M513.5,43.65
		c0.79,0.18,2.06,0.18,3.2,0.18c8.34,0.06,13.78-4.53,13.78-14.27c0.06-8.46-4.9-12.94-12.82-12.94c-2.06,0-3.39,0.18-4.17,0.36
		V43.65z"/>
	<path fill="#777777" d="M550.97,40.14l-2.9,10.46h-9.55l12.45-40.75h12.09L575.7,50.6h-9.92l-3.14-10.46H550.97z M561.31,33.25
		l-2.54-8.65c-0.73-2.42-1.45-5.44-2.06-7.86h-0.12c-0.6,2.42-1.21,5.5-1.87,7.86l-2.42,8.65H561.31z"/>
</g>
<rect x="168.96" y="1.98" fill="#777777" width="5" height="65"/>
<g>
	<path fill="#777777" d="M1.98,20.75H4.3v15.82h7.59v1.95H1.98V20.75z"/>
	<path fill="#777777" d="M17.32,32.94l-1.82,5.59h-2.4l6.06-17.77h2.74l6.06,17.77h-2.45l-1.9-5.59H17.32z M23.15,31.14l-1.74-5.12
		c-0.4-1.16-0.66-2.21-0.92-3.24h-0.08c-0.24,1.05-0.53,2.14-0.87,3.22l-1.74,5.14H23.15z"/>
	<path fill="#777777" d="M30.56,20.99c1.03-0.21,2.64-0.37,4.22-0.37c2.29,0,3.77,0.4,4.85,1.29c0.95,0.69,1.5,1.74,1.5,3.14
		c0,1.71-1.16,3.24-3.01,3.9v0.05c1.69,0.42,3.67,1.79,3.67,4.48c0,1.5-0.58,2.66-1.53,3.53c-1.21,1.13-3.22,1.66-6.12,1.66
		c-1.61,0-2.79-0.11-3.59-0.21V20.99z M32.88,28.3h2.08c2.4,0,3.85-1.29,3.85-3.01c0-2.08-1.58-2.9-3.9-2.9
		c-1.05,0-1.66,0.08-2.03,0.16V28.3z M32.88,36.79c0.47,0.08,1.08,0.11,1.92,0.11c2.37,0,4.59-0.87,4.59-3.43
		c0-2.45-2.11-3.45-4.61-3.45h-1.9V36.79z"/>
	<path fill="#777777" d="M60.06,29.61c0,5.91-3.77,9.2-8.25,9.2c-4.8,0-7.99-3.77-7.99-9.07c0-5.46,3.4-9.28,8.31-9.28
		C57.19,20.46,60.06,24.47,60.06,29.61z M46.27,29.67c0,4.03,2.06,7.28,5.67,7.28c3.74,0,5.7-3.4,5.7-7.28
		c0-3.64-1.77-7.33-5.67-7.33C48.28,22.34,46.27,25.66,46.27,29.67z"/>
	<path fill="#777777" d="M63.02,20.99c1.19-0.24,2.85-0.37,4.43-0.37c2.45,0,4.03,0.45,5.14,1.45c0.87,0.79,1.4,2,1.4,3.38
		c0,2.35-1.48,3.9-3.35,4.54v0.05c1.37,0.5,2.19,1.79,2.61,3.61c0.58,2.5,1,4.19,1.37,4.88h-2.37c-0.29-0.5-0.69-2.03-1.19-4.25
		c-0.53-2.43-1.48-3.38-3.56-3.45h-2.16v7.7h-2.32V20.99z M65.34,29.09h2.35c2.45,0,4.01-1.34,4.01-3.38c0-2.32-1.66-3.3-4.09-3.32
		c-1.13,0-1.9,0.11-2.27,0.21V29.09z"/>
	<path fill="#777777" d="M80.23,32.94l-1.82,5.59h-2.4l6.06-17.77h2.74l6.06,17.77h-2.45l-1.9-5.59H80.23z M86.06,31.14l-1.74-5.12
		c-0.4-1.16-0.66-2.21-0.92-3.24h-0.08c-0.24,1.05-0.53,2.14-0.87,3.22l-1.74,5.14H86.06z"/>
	<path fill="#777777" d="M94.84,22.71h-5.41v-1.95h13.16v1.95h-5.43v15.82h-2.32V22.71z"/>
	<path fill="#777777" d="M119.04,29.61c0,5.91-3.77,9.2-8.25,9.2c-4.8,0-7.99-3.77-7.99-9.07c0-5.46,3.4-9.28,8.31-9.28
		C116.17,20.46,119.04,24.47,119.04,29.61z M105.25,29.67c0,4.03,2.06,7.28,5.67,7.28c3.74,0,5.7-3.4,5.7-7.28
		c0-3.64-1.77-7.33-5.67-7.33C107.26,22.34,105.25,25.66,105.25,29.67z"/>
	<path fill="#777777" d="M122,20.99c1.19-0.24,2.85-0.37,4.43-0.37c2.45,0,4.03,0.45,5.14,1.45c0.87,0.79,1.4,2,1.4,3.38
		c0,2.35-1.48,3.9-3.35,4.54v0.05c1.37,0.5,2.19,1.79,2.61,3.61c0.58,2.5,1,4.19,1.37,4.88h-2.37c-0.29-0.5-0.69-2.03-1.19-4.25
		c-0.53-2.43-1.48-3.38-3.56-3.45h-2.16v7.7H122V20.99z M124.32,29.09h2.35c2.45,0,4.01-1.34,4.01-3.38c0-2.32-1.66-3.3-4.09-3.32
		c-1.13,0-1.9,0.11-2.27,0.21V29.09z"/>
	<path fill="#777777" d="M138.5,20.75v17.77h-2.32V20.75H138.5z"/>
	<path fill="#777777" d="M157.7,29.61c0,5.91-3.77,9.2-8.25,9.2c-4.8,0-7.99-3.77-7.99-9.07c0-5.46,3.4-9.28,8.31-9.28
		C154.82,20.46,157.7,24.47,157.7,29.61z M143.91,29.67c0,4.03,2.06,7.28,5.67,7.28c3.74,0,5.7-3.4,5.7-7.28
		c0-3.64-1.77-7.33-5.67-7.33C145.91,22.34,143.91,25.66,143.91,29.67z"/>
</g>
<g>
	<path fill="#777777" d="M197.64,37.78l-4.23,12.82h-5.44l13.84-40.75h6.35l13.9,40.75h-5.62l-4.35-12.82H197.64z M211,33.67
		l-3.99-11.73c-0.91-2.66-1.51-5.08-2.12-7.44h-0.12c-0.6,2.42-1.27,4.9-2.06,7.38l-3.99,11.79H211z"/>
	<path fill="#777777" d="M228.05,10.4c2.66-0.54,6.47-0.85,10.1-0.85c5.62,0,9.25,1.03,11.79,3.33c2.06,1.81,3.2,4.59,3.2,7.74
		c0,5.38-3.39,8.95-7.68,10.4v0.18c3.14,1.09,5.02,3.99,5.98,8.22c1.33,5.68,2.3,9.61,3.14,11.18h-5.44
		c-0.67-1.15-1.57-4.66-2.72-9.73c-1.21-5.62-3.39-7.74-8.16-7.92h-4.96V50.6h-5.26V10.4z M233.31,28.96h5.38
		c5.62,0,9.19-3.08,9.19-7.74c0-5.26-3.81-7.56-9.37-7.62c-2.54,0-4.35,0.24-5.2,0.48V28.96z"/>
	<path fill="#777777" d="M268.85,14.32h-12.39V9.85h30.17v4.47h-12.45V50.6h-5.32V14.32z"/>
	<path fill="#777777" d="M312.26,31.49h-15.84v14.69h17.65v4.41h-22.91V9.85h22.01v4.41h-16.75v12.88h15.84V31.49z"/>
	<path fill="#777777" d="M329.79,40.14l-2.9,10.46h-9.55l12.45-40.75h12.09l12.64,40.75h-9.92l-3.14-10.46H329.79z M340.12,33.25
		l-2.54-8.65c-0.73-2.42-1.45-5.44-2.06-7.86h-0.12c-0.6,2.42-1.21,5.5-1.87,7.86l-2.42,8.65H340.12z"/>
	<path fill="#777777" d="M356.32,9.85h9.25v33.01h16.2v7.74h-25.45V9.85z"/>
	<path fill="#777777" d="M394.29,40.14l-2.9,10.46h-9.55l12.45-40.75h12.09l12.64,40.75h-9.92l-3.14-10.46H394.29z M404.62,33.25
		l-2.54-8.65c-0.73-2.42-1.45-5.44-2.06-7.86h-0.12c-0.6,2.42-1.21,5.5-1.87,7.86l-2.42,8.65H404.62z"/>
	<path fill="#777777" d="M457.7,35c-0.18-4.9-0.36-10.82-0.36-16.75h-0.18c-1.27,5.2-2.96,11-4.53,15.78l-4.96,15.9h-7.19
		l-4.35-15.78c-1.33-4.78-2.72-10.58-3.69-15.9h-0.12c-0.24,5.5-0.42,11.79-0.73,16.87l-0.73,15.48h-8.52l2.6-40.75h12.27l3.99,13.6
		c1.27,4.72,2.54,9.79,3.45,14.57h0.18c1.15-4.72,2.54-10.1,3.87-14.63l4.35-13.54h12.03l2.24,40.75h-9.01L457.7,35z"/>
	<path fill="#777777" d="M498.62,33.37h-14.99v9.67h16.75v7.56h-26V9.85h25.15v7.56h-15.9v8.46h14.99V33.37z"/>
	<path fill="#777777" d="M504.25,10.4c3.39-0.54,7.8-0.85,12.45-0.85c7.74,0,12.76,1.39,16.69,4.35c4.23,3.14,6.89,8.16,6.89,15.36
		c0,7.8-2.84,13.18-6.77,16.5c-4.29,3.57-10.82,5.26-18.8,5.26c-4.78,0-8.16-0.3-10.46-0.61V10.4z M513.5,43.65
		c0.79,0.18,2.06,0.18,3.2,0.18c8.34,0.06,13.78-4.53,13.78-14.27c0.06-8.46-4.9-12.94-12.82-12.94c-2.06,0-3.39,0.18-4.17,0.36
		V43.65z"/>
	<path fill="#777777" d="M550.97,40.14l-2.9,10.46h-9.55l12.45-40.75h12.09L575.7,50.6h-9.92l-3.14-10.46H550.97z M561.31,33.25
		l-2.54-8.65c-0.73-2.42-1.45-5.44-2.06-7.86h-0.12c-0.6,2.42-1.21,5.5-1.87,7.86l-2.42,8.65H561.31z"/>
</g>
<rect x="168.96" y="1.98" fill="#777777" width="5" height="65"/>
<g>
	<path fill="#777777" d="M1.98,20.75H4.3v15.82h7.59v1.95H1.98V20.75z"/>
	<path fill="#777777" d="M17.32,32.94l-1.82,5.59h-2.4l6.06-17.77h2.74l6.06,17.77h-2.45l-1.9-5.59H17.32z M23.15,31.14l-1.74-5.12
		c-0.4-1.16-0.66-2.21-0.92-3.24h-0.08c-0.24,1.05-0.53,2.14-0.87,3.22l-1.74,5.14H23.15z"/>
	<path fill="#777777" d="M30.56,20.99c1.03-0.21,2.64-0.37,4.22-0.37c2.29,0,3.77,0.4,4.85,1.29c0.95,0.69,1.5,1.74,1.5,3.14
		c0,1.71-1.16,3.24-3.01,3.9v0.05c1.69,0.42,3.67,1.79,3.67,4.48c0,1.5-0.58,2.66-1.53,3.53c-1.21,1.13-3.22,1.66-6.12,1.66
		c-1.61,0-2.79-0.11-3.59-0.21V20.99z M32.88,28.3h2.08c2.4,0,3.85-1.29,3.85-3.01c0-2.08-1.58-2.9-3.9-2.9
		c-1.05,0-1.66,0.08-2.03,0.16V28.3z M32.88,36.79c0.47,0.08,1.08,0.11,1.92,0.11c2.37,0,4.59-0.87,4.59-3.43
		c0-2.45-2.11-3.45-4.61-3.45h-1.9V36.79z"/>
	<path fill="#777777" d="M60.06,29.61c0,5.91-3.77,9.2-8.25,9.2c-4.8,0-7.99-3.77-7.99-9.07c0-5.46,3.4-9.28,8.31-9.28
		C57.19,20.46,60.06,24.47,60.06,29.61z M46.27,29.67c0,4.03,2.06,7.28,5.67,7.28c3.74,0,5.7-3.4,5.7-7.28
		c0-3.64-1.77-7.33-5.67-7.33C48.28,22.34,46.27,25.66,46.27,29.67z"/>
	<path fill="#777777" d="M63.02,20.99c1.19-0.24,2.85-0.37,4.43-0.37c2.45,0,4.03,0.45,5.14,1.45c0.87,0.79,1.4,2,1.4,3.38
		c0,2.35-1.48,3.9-3.35,4.54v0.05c1.37,0.5,2.19,1.79,2.61,3.61c0.58,2.5,1,4.19,1.37,4.88h-2.37c-0.29-0.5-0.69-2.03-1.19-4.25
		c-0.53-2.43-1.48-3.38-3.56-3.45h-2.16v7.7h-2.32V20.99z M65.34,29.09h2.35c2.45,0,4.01-1.34,4.01-3.38c0-2.32-1.66-3.3-4.09-3.32
		c-1.13,0-1.9,0.11-2.27,0.21V29.09z"/>
	<path fill="#777777" d="M80.23,32.94l-1.82,5.59h-2.4l6.06-17.77h2.74l6.06,17.77h-2.45l-1.9-5.59H80.23z M86.06,31.14l-1.74-5.12
		c-0.4-1.16-0.66-2.21-0.92-3.24h-0.08c-0.24,1.05-0.53,2.14-0.87,3.22l-1.74,5.14H86.06z"/>
	<path fill="#777777" d="M94.84,22.71h-5.41v-1.95h13.16v1.95h-5.43v15.82h-2.32V22.71z"/>
	<path fill="#777777" d="M119.04,29.61c0,5.91-3.77,9.2-8.25,9.2c-4.8,0-7.99-3.77-7.99-9.07c0-5.46,3.4-9.28,8.31-9.28
		C116.17,20.46,119.04,24.47,119.04,29.61z M105.25,29.67c0,4.03,2.06,7.28,5.67,7.28c3.74,0,5.7-3.4,5.7-7.28
		c0-3.64-1.77-7.33-5.67-7.33C107.26,22.34,105.25,25.66,105.25,29.67z"/>
	<path fill="#777777" d="M122,20.99c1.19-0.24,2.85-0.37,4.43-0.37c2.45,0,4.03,0.45,5.14,1.45c0.87,0.79,1.4,2,1.4,3.38
		c0,2.35-1.48,3.9-3.35,4.54v0.05c1.37,0.5,2.19,1.79,2.61,3.61c0.58,2.5,1,4.19,1.37,4.88h-2.37c-0.29-0.5-0.69-2.03-1.19-4.25
		c-0.53-2.43-1.48-3.38-3.56-3.45h-2.16v7.7H122V20.99z M124.32,29.09h2.35c2.45,0,4.01-1.34,4.01-3.38c0-2.32-1.66-3.3-4.09-3.32
		c-1.13,0-1.9,0.11-2.27,0.21V29.09z"/>
	<path fill="#777777" d="M138.5,20.75v17.77h-2.32V20.75H138.5z"/>
	<path fill="#777777" d="M157.7,29.61c0,5.91-3.77,9.2-8.25,9.2c-4.8,0-7.99-3.77-7.99-9.07c0-5.46,3.4-9.28,8.31-9.28
		C154.82,20.46,157.7,24.47,157.7,29.61z M143.91,29.67c0,4.03,2.06,7.28,5.67,7.28c3.74,0,5.7-3.4,5.7-7.28
		c0-3.64-1.77-7.33-5.67-7.33C145.91,22.34,143.91,25.66,143.91,29.67z"/>
</g>
<g>
	<path fill="#777777" d="M197.64,37.78l-4.23,12.82h-5.44l13.84-40.75h6.35l13.9,40.75h-5.62l-4.35-12.82H197.64z M211,33.67
		l-3.99-11.73c-0.91-2.66-1.51-5.08-2.12-7.44h-0.12c-0.6,2.42-1.27,4.9-2.06,7.38l-3.99,11.79H211z"/>
	<path fill="#777777" d="M228.05,10.4c2.66-0.54,6.47-0.85,10.1-0.85c5.62,0,9.25,1.03,11.79,3.33c2.06,1.81,3.2,4.59,3.2,7.74
		c0,5.38-3.39,8.95-7.68,10.4v0.18c3.14,1.09,5.02,3.99,5.98,8.22c1.33,5.68,2.3,9.61,3.14,11.18h-5.44
		c-0.67-1.15-1.57-4.66-2.72-9.73c-1.21-5.62-3.39-7.74-8.16-7.92h-4.96V50.6h-5.26V10.4z M233.31,28.96h5.38
		c5.62,0,9.19-3.08,9.19-7.74c0-5.26-3.81-7.56-9.37-7.62c-2.54,0-4.35,0.24-5.2,0.48V28.96z"/>
	<path fill="#777777" d="M268.85,14.32h-12.39V9.85h30.17v4.47h-12.45V50.6h-5.32V14.32z"/>
	<path fill="#777777" d="M312.26,31.49h-15.84v14.69h17.65v4.41h-22.91V9.85h22.01v4.41h-16.75v12.88h15.84V31.49z"/>
	<path fill="#777777" d="M329.79,40.14l-2.9,10.46h-9.55l12.45-40.75h12.09l12.64,40.75h-9.92l-3.14-10.46H329.79z M340.12,33.25
		l-2.54-8.65c-0.73-2.42-1.45-5.44-2.06-7.86h-0.12c-0.6,2.42-1.21,5.5-1.87,7.86l-2.42,8.65H340.12z"/>
	<path fill="#777777" d="M356.32,9.85h9.25v33.01h16.2v7.74h-25.45V9.85z"/>
	<path fill="#777777" d="M394.29,40.14l-2.9,10.46h-9.55l12.45-40.75h12.09l12.64,40.75h-9.92l-3.14-10.46H394.29z M404.62,33.25
		l-2.54-8.65c-0.73-2.42-1.45-5.44-2.06-7.86h-0.12c-0.6,2.42-1.21,5.5-1.87,7.86l-2.42,8.65H404.62z"/>
	<path fill="#777777" d="M457.7,35c-0.18-4.9-0.36-10.82-0.36-16.75h-0.18c-1.27,5.2-2.96,11-4.53,15.78l-4.96,15.9h-7.19
		l-4.35-15.78c-1.33-4.78-2.72-10.58-3.69-15.9h-0.12c-0.24,5.5-0.42,11.79-0.73,16.87l-0.73,15.48h-8.52l2.6-40.75h12.27l3.99,13.6
		c1.27,4.72,2.54,9.79,3.45,14.57h0.18c1.15-4.72,2.54-10.1,3.87-14.63l4.35-13.54h12.03l2.24,40.75h-9.01L457.7,35z"/>
	<path fill="#777777" d="M498.62,33.37h-14.99v9.67h16.75v7.56h-26V9.85h25.15v7.56h-15.9v8.46h14.99V33.37z"/>
	<path fill="#777777" d="M504.25,10.4c3.39-0.54,7.8-0.85,12.45-0.85c7.74,0,12.76,1.39,16.69,4.35c4.23,3.14,6.89,8.16,6.89,15.36
		c0,7.8-2.84,13.18-6.77,16.5c-4.29,3.57-10.82,5.26-18.8,5.26c-4.78,0-8.16-0.3-10.46-0.61V10.4z M513.5,43.65
		c0.79,0.18,2.06,0.18,3.2,0.18c8.34,0.06,13.78-4.53,13.78-14.27c0.06-8.46-4.9-12.94-12.82-12.94c-2.06,0-3.39,0.18-4.17,0.36
		V43.65z"/>
	<path fill="#777777" d="M550.97,40.14l-2.9,10.46h-9.55l12.45-40.75h12.09L575.7,50.6h-9.92l-3.14-10.46H550.97z M561.31,33.25
		l-2.54-8.65c-0.73-2.42-1.45-5.44-2.06-7.86h-0.12c-0.6,2.42-1.21,5.5-1.87,7.86l-2.42,8.65H561.31z"/>
</g>
<rect x="168.96" y="1.98" fill="#777777" width="5" height="65"/>
<g>
</g>
<g>
</g>
<g>
</g>
<g>
</g>
<g>
</g>
<g>
</g>
<g>
</g>
<g>
</g>
<g>
</g>
<g>
</g>
<g>
</g>
<g>
</g>
<g>
</g>
<g>
</g>
<g>
</g>
</svg>
